# AST/ASF file generated using VICON BodyLanguage
# -----------------------------------------------
:version 1.10
:name VICON
:units
  mass 1.0
  length 0.45
  angle deg
:documentation
   .ast/.asf automatically generated from VICON data using
   VICON BodyBuilder and BodyLanguage model FoxedUp or BRILLIANT.MOD
:root
   order TX TY TZ RX RY RZ
   axis XYZ
   position 0 0 0  
   orientation 0 0 0 
:bonedata
  begin
     id 1 
     name lhipjoint
     direction 0.702568 -0.596508 0.388042 
     length 2.56661 
     axis 0 0 0  XYZ
  end
  begin
     id 2 
     name lfemur
     direction 0.34202 -0.939693 0  
     length 6.58374  
     axis 0 0 20  XYZ
    dof rx ry rz
    limits (-160.0 20.0)
           (-70.0 70.0)
           (-60.0 70.0)
  end
  begin
     id 3 
     name ltibia
     direction 0.34202 -0.939693 0   
     length 6.62538   
     axis 0 0 20   XYZ
    dof rx
    limits (-10.0 170.0)
  end
  begin
     id 4 
     name lfoot
     direction 0.10455 -0.287249 0.952133   
     length 2.26699   
     axis -90 7.62852e-016 20   XYZ
    dof rx rz
    limits (-45.0 90.0)
           (-70.0 20.0)
  end
  begin
     id 5 
     name ltoes
     direction 1.53572e-011 -4.22322e-011 1   
     length 1.12949   
     axis -90 7.62852e-016 20   XYZ
    dof rx
    limits (-90.0 20.0)
  end
  begin
     id 6 
     name rhipjoint
     direction -0.728055 -0.574632 0.373811   
     length 2.66432  
     axis 0 0 0  XYZ 
  end
  begin
     id 7 
     name rfemur
     direction -0.34202 -0.939693 0   
     length 6.66732   
     axis 0 0 -20   XYZ
    dof rx ry rz
    limits (-160.0 20.0)
           (-70.0 70.0)
           (-70.0 60.0)
  end
  begin
     id 8 
     name rtibia
     direction -0.34202 -0.939693 0   
     length 6.59288   
     axis 0 0 -20   XYZ
    dof rx
    limits (-10.0 170.0)
 end
 begin
     id 9 
     name rfoot
     direction -0.119193 -0.327479 0.93731   
     length 2.38061  
     axis -90 -7.62852e-016 -20   XYZ
    dof rx rz
    limits (-45.0 90.0)
           (-20.0 70.0)
  end
  begin
     id 10 
     name rtoes
     direction -1.53547e-011 -4.21827e-011 1   
     length 1.17899   
     axis -90 -7.62852e-016 -20   XYZ
    dof rx
    limits (-90.0 20.0)
  end
  begin
     id 11 
     name lowerback
     direction -0.000416114 0.999912 -0.0132284   
     length 2.12109   
     axis 0 0 0   XYZ
    dof rx ry rz
    limits (-20.0 45.0)
           (-30.0 30.0)
           (-30.0 30.0)
  end
  begin
     id 12 
     name upperback
     direction -0.00136371 0.99809 0.0617608   
     length 2.10067   
     axis 0 0 0   XYZ
    dof rx ry rz
    limits (-20.0 45.0)
           (-30.0 30.0)
           (-30.0 30.0)
  end
  begin
     id 13 
     name thorax
     direction -3.43026e-005 0.997776 0.0666515   
     length 2.10618   
     axis 0 0 0   XYZ
    dof rx ry rz
    limits (-20.0 45.0)
           (-30.0 30.0)
           (-30.0 30.0)
  end
  begin
     id 14 
     name lowerneck
     direction 0.0398646 0.998418 0.0396592   
     length 1.83817   
     axis 0 0 0   XYZ
    dof rx ry rz
    limits (-20.0 45.0)
           (-30.0 30.0)
           (-30.0 30.0)
  end
  begin
     id 15 
     name upperneck
     direction -0.0367268 0.961527 -0.272244   
     length 1.81975   
     axis 0 0 0   XYZ
    dof rx ry rz
    limits (-20.0 45.0)
           (-30.0 30.0)
           (-30.0 30.0)
  end
  begin
     id 16
     name head
     direction -0.0182665 0.99536 -0.0944669  
     length 1.86026  
     axis 0 0 0   XYZ
    dof rx ry rz
    limits (-20.0 45.0)
           (-30.0 30.0)
           (-30.0 30.0)
  end
  begin
     id 17 
     name lclavicle
     direction 0.924239 0.361045 0.124212  
     length 3.26878  
     axis 0 0 0   XYZ
    dof ry rz
    limits (-20.0 10.0)
           (0.0 20.0)
  end
  begin
     id 18 
     name lhumerus
     direction 1 -4.48968e-011 -2.56583e-027   
     length 4.58538   
     axis 180 -30 -90   XYZ
    dof rx ry rz
    limits (-60.0 90.0)
           (-90.0 90.0)
           (-90.0 90.0)
  end
  begin
     id 19
     name lradius
     direction 1 -4.4898e-011 -5.50375e-027   
     length 2.68935   
     axis 180 -30 -90   XYZ
    dof rx
    limits (-10.0 170.0)
  end
  begin
     id 20
     name lwrist
     direction 1 -4.48939e-011 -1.48955e-026   
     length 1.34468   
     axis 9.0955e-015 90 90   XYZ
    dof ry
    limits (-180.0 0.0)
 end
  begin
     id 21 
     name lhand
     direction 1 -4.48936e-011 -2.97907e-026   
     length 0.585058   
     axis 1.90115e-014 90 90   XYZ
    dof rx rz
    limits (-90.0 90.0)
           (-45.0 45.0)
  end
  begin
     id 22 
     name lfingers
     direction 1 -4.49082e-011 -5.96235e-026   
     length 0.471689   
     axis 3.80223e-014 90 90   XYZ
    dof rx
    limits (0.0 90.0)
  end
  begin
     id 23
     name lthumb
     direction 0.707107 -6.3489e-011 0.707107   
     length 0.677253   
     axis -90 45 -3.84942e-014   XYZ
    dof rx rz
    limits (-45.0 45.0)
           (-45.0 45.0)
  end
  begin
     id 24 
     name rclavicle
     direction -0.923098 0.371783 0.0983239   
     length 3.19656  
     axis 0 0 0   XYZ 
    dof ry rz
    limits (-10.0 20.0)
           (-20.0 0.0)
  end
  begin
     id 25 
     name rhumerus
     direction -1 -4.48976e-011 -2.5492e-027  
     length 4.4745   
     axis 180 30 90   XYZ
    dof rx ry rz
    limits (-90.0 60.0)
           (-90.0 90.0)
           (-90.0 90.0)
  end
  begin
     id 26 
     name rradius
     direction -1 -4.48941e-011 -4.36555e-027   
     length 2.93896   
     axis 180 30 90   XYZ
    dof rx
    limits (-10.0 170.0)
  end
  begin
     id 27 
     name rwrist
     direction -1 -4.49044e-011 -1.49032e-026   
     length 1.46948   
     axis 9.0955e-015 -90 -90   XYZ
    dof ry
    limits (-180.0 0.0)
  end
  begin
     id 28
     name rhand
     direction -1 -4.48826e-011 -2.97749e-026   
     length 0.405092   
     axis 1.90115e-014 -90 -90   XYZ
    dof rx rz
    limits (-90.0 90.0)
           (-45.0 45.0)
  end
  begin
     id 29
     name rfingers
     direction -1 -4.49209e-011 -5.96602e-026   
     length 0.326596   
     axis 3.80223e-014 -90 -90   XYZ
    dof rx
    limits (0.0 90.0)
  end
  begin
     id 30
     name rthumb
     direction -0.707107 -6.34776e-011 0.707107   
     length 0.468928   
     axis -90 -45 3.84942e-014   XYZ
    dof rx rz
    limits (-45.0 45.0)
           (-45.0 45.0)
  end
:hierarchy
  begin
    root lhipjoint rhipjoint lowerback
    lhipjoint lfemur
    lfemur ltibia
    ltibia lfoot
    lfoot ltoes
    rhipjoint rfemur
    rfemur rtibia
    rtibia rfoot
    rfoot rtoes
    lowerback upperback
    upperback thorax
    thorax lowerneck lclavicle rclavicle
    lowerneck upperneck
    upperneck head
    lclavicle lhumerus
    lhumerus lradius
    lradius lwrist
    lwrist lhand lthumb
    lhand lfingers
    rclavicle rhumerus
    rhumerus rradius
    rradius rwrist
    rwrist rhand rthumb
    rhand rfingers
  end

#!OML:ASF H:\Punching\Project 1\Capture day 1\Session 1\female.ASF
:FULLY-SPECIFIED
:DEGREES
529
root 1.86306 14.5609 -2.45984 18.8004 16.9795 7.08302
lowerback -4.06167 -1.52036 -3.31314
upperback -7.4072 -2.00336 -0.565045
thorax -5.31625 -0.825444 1.27457
lowerneck -14.3169 -0.0892941 5.64849
upperneck 31.4243 -0.997102 -2.04501
head 12.8097 0.00941528 -1.91132
rclavicle -1.32176e-014 5.96354e-015
rhumerus 14.8715 15.3828 -67.5421
rradius 134.145
rwrist -22.1142
rhand -30.9087 9.43752
rfingers 7.12502
rthumb -4.19497 -20.5009
lclavicle -1.32176e-014 5.96354e-015
lhumerus 2.66536 -24.1609 75.568
lradius 137.322
lwrist -2.87858
lhand -30.1465 -7.8404
lfingers 7.12502
lthumb -3.45889 22.1113
rfemur -53.5985 -9.05543 1.17035
rtibia 52.1686
rfoot -7.36543 -12.2439
rtoes -0.160845
lfemur -5.49221 -16.1767 -19.6136
ltibia 23.0985
lfoot -33.8176 27.8961
ltoes -4.40569
530
root 1.85761 14.5583 -2.45563 18.7169 16.8394 6.91521
lowerback -4.05716 -1.4891 -3.25592
upperback -7.41977 -1.96284 -0.573509
thorax -5.33576 -0.808126 1.23408
lowerneck -14.2618 -0.0608409 5.7327
upperneck 31.4053 -0.995071 -1.98752
head 12.7912 0.0273224 -1.90256
rclavicle -3.11242e-014 9.14409e-015
rhumerus 14.9646 15.4822 -67.4826
rradius 133.979
rwrist -21.8437
rhand -30.9161 9.50429
rfingers 7.12502
rthumb -4.20212 -20.434
lclavicle -3.11242e-014 9.14409e-015
lhumerus 2.66063 -24.1353 75.5043
lradius 137.339
lwrist -2.70691
lhand -29.9584 -7.70716
lfingers 7.12502
lthumb -3.27725 22.2474
rfemur -53.5878 -8.99398 1.38182
rtibia 52.0766
rfoot -7.40327 -12.0174
rtoes -0.298505
lfemur -5.44425 -16.2028 -19.5055
ltibia 23.198
lfoot -34.0125 28.0642
ltoes -4.34147
531
root 1.85178 14.5547 -2.45167 18.6489 16.6903 6.77112
lowerback -4.04436 -1.46623 -3.22029
upperback -7.4406 -1.93394 -0.580086
thorax -5.36762 -0.795124 1.20794
lowerneck -14.2146 -0.0297138 5.8135
upperneck 31.3904 -0.986501 -1.93709
head 12.7764 0.0467763 -1.89516
rclavicle -1.66948e-015 -1.94809e-014
rhumerus 15.064 15.5464 -67.3997
rradius 133.832
rwrist -21.6555
rhand -30.9297 9.44352
rfingers 7.12502
rthumb -4.21526 -20.4945
lclavicle -1.66948e-015 -1.94809e-014
lhumerus 2.68356 -24.0944 75.4137
lradius 137.348
lwrist -2.55511
lhand -29.7812 -7.56033
lfingers 7.12502
lthumb -3.10616 22.3968
rfemur -53.6126 -8.98723 1.58753
rtibia 52.0133
rfoot -7.43203 -11.7226
rtoes -0.496849
lfemur -5.40429 -16.2009 -19.4104
ltibia 23.2906
lfoot -34.1809 28.1935
ltoes -4.32444
532
root 1.84558 14.5502 -2.44777 18.5994 16.5284 6.65099
lowerback -4.03075 -1.44923 -3.20738
upperback -7.46699 -1.91298 -0.587632
thorax -5.40499 -0.784767 1.19356
lowerneck -14.1851 0.00380926 5.89795
upperneck 31.3829 -0.973852 -1.89609
head 12.7686 0.0673063 -1.89176
rclavicle 9.40112e-015 -2.38542e-015
rhumerus 15.1663 15.5666 -67.3086
rradius 133.714
rwrist -21.6017
rhand -30.9197 9.30202
rfingers 7.12502
rthumb -4.2056 -20.6362
lclavicle 9.40112e-015 -2.38542e-015
lhumerus 2.7336 -24.0431 75.299
lradius 137.352
lwrist -2.42563
lhand -29.6209 -7.3965
lfingers 7.12502
lthumb -2.95134 22.5628
rfemur -53.6826 -9.0311 1.79146
rtibia 51.9845
rfoot -7.45139 -11.3739
rtoes -0.72911
lfemur -5.37128 -16.1805 -19.3316
ltibia 23.3708
lfoot -34.3274 28.2996
ltoes -4.34239
